@startuml
'Header Comments (only visible in the pUML graph, not part of this experiment definition):'
center header
19/04/2025
endheader

'Title Comments (same as Header Comments):'
title
Lineal Experiment
end title

'----------------------'
'Experiment Definition:'
'----------------------'
legend top
'Experiment Title (format: "===<title>"):'
===Lineal Experiment
----
'Experiment Description (multiline):'
Experiment description. Lorem ipsum dolor sit amet, consectetur adipiscing elit.
Nullam hendrerit dui at sagittis aliquam. Fusce faucibus nec lorem quis scelerisque.
....
'Experiment Details (multiline; format: "<key>: <value>"):'
ID: ABC123
abortStageId: End
end legend
'--------------------------'
'Experiment Definition End.'
'--------------------------'

'------------------'
'Stages Definition:'
'------------------'
'Stage Definition Format: state "===[<type>] <title>" as <ref>'
state "===[confirm] Confirmation" as Start
'Stage Description (multiline; format: "<ref>: <description_line>"):'
Start: Stage description. Lorem ipsum dolor sit amet,
Start: consectetur adipiscing elit. Nullam hendrerit
Start: dui at sagittis aliquam.
Start: ....
'Stage Details (multiline; format: "<ref>: <key>: <value>"):'
Start: ID: ABC123_START
Start: confirmationResult: CONFIRMED
Start: buttonLabel: Start
Start: buttonIcon: 58571
'Stage PoMA Commands (multiline; format: "<ref>: *<event>: <command>"):'
Start: ..pomaCommands..
Start: *ENTER: =intensity 0,0

state "===[delay] Device Setup" as Setup
Setup: The device is being configured, please wait.
Setup: ....
Setup: ID: ABC123_SETUP
Setup: completionResult: COMPLETED
Setup: delayMs: 10000
Setup: tickProgressMs: 1000
Setup: delayFeedback: Starting in...
Setup: ..pomaCommands..
Setup: *TICK_1000: =intensity 0,0
Setup: *TICK_2000: =intensity 50,50
Setup: *TICK_3000: =intensity 0,0
Setup: *TICK_4000: =intensity 50,50
Setup: *TICK_5000: =intensity 0,0
Setup: *TICK_6000: =intensity 50,50
Setup: *TICK_7000: =intensity 0,0
Setup: *TICK_8000: =intensity 50,50
Setup: *TICK_9000: =intensity 0,0

state "===[wait] Device Running" as Run
Run: The device is working. Confirm if you feel
Run: the vibration.
Run: ....
Run: ID: ABC123_WAIT
Run: timeoutResult: TIMEOUT
Run: feedbackResult: FEEDBACK_YES
Run: waitingMs: 15000
Run: tickProgressMs: 500
Run: waitFeedback: Time:
Run: buttonLabel: Feedback
Run: buttonIcon: 58971
Run: ..pomaCommands..
Run: *TICK_1000: =intensity 10,10
Run: *TICK_3000: =intensity 30,30
Run: *TICK_5500: =intensity 50,50
Run: *TICK_7000: =intensity 70,70
Run: *TICK_9500: =intensity 90,90
Run: *EXIT: =intensity 0,0

state "===[feedback] Feedback" as Feedback
Feedback: Please indicate if you felt the vibration.
Feedback: ....
Feedback: ID: ABC123_FEEDBACK
Feedback: timeoutResult: TIMEOUT
Feedback: feedbackResult: FEEDBACK_YES
Feedback: minScaleValue: 0
Feedback: maxScaleValue: 10
Feedback: initialSelectedValue: 5
Feedback: positiveLabel: Yes
Feedback: negativeLabel: No
Feedback: feedbackLabel: Indicate the perceived intensity:
Feedback: confirmLabel: Confirm
Feedback: defaultResult: NO_RESULT
Feedback: positiveIcon: 58971
Feedback: negativeIcon: 58968
Feedback: confirmIcon: 57686
Feedback: resultGenerator.$_class: to_string
Feedback: ..pomaCommands..

state "===[message] End" as End
End: The experiment has concluded.
End: ....
End: ID: ABC123_END
End: exitedResult: EXITED
End: message: Thank you.
End: ..pomaCommands..
End: *ENTER: =intensity 0,0
End: *EXIT: =intensity 0,0
'----------------------'
'Stages Definition End.'
'----------------------'

'------------'
'Transitions:'
'------------'
'Format: <origin_ref> <arrow> <destination_ref> : [<trigger_type>] <trigger_value>)'
'Arrow format (either): -->, -up->, -down->, -left->, -right->'

'Starting Stage (only one is allowed):'
[*] -down-> Start

'Final Stage (only one is allowed):'
End -down-> [*]

'Transitions:'
Start -right-> Setup : [always]
Setup -right-> Run : [always]
Run --> End : [equals] FEEDBACK_YES
Run --> Feedback : [equals] TIMEOUT
Feedback -right-> End : [always]
'----------------'
'Transitions End.'
'----------------'

'Footer Comments (same as Header Comments):'
footer
Copyright: 2025
end footer
@enduml